<?xml version="1.0" encoding="UTF-8"?>
<svg xmlns="http://www.w3.org/2000/svg" xmlns:xlink="http://www.w3.org/1999/xlink" width="30px" height="30px" viewBox="0 0 30 30" version="1.1">
<g id="surface1">
<path style=" stroke:none;fill-rule:nonzero;fill:rgb(0%,0%,0%);fill-opacity:1;" d="M 24.570312 5.347656 C 22.007812 2.804688 18.609375 1.40625 15.003906 1.40625 C 14.980469 1.40625 14.960938 1.40625 14.945312 1.40625 C 11.3125 1.421875 7.902344 2.851562 5.347656 5.429688 C 2.789062 8.007812 1.390625 11.429688 1.40625 15.054688 C 1.421875 18.6875 2.851562 22.097656 5.429688 24.652344 C 7.992188 27.195312 11.390625 28.59375 14.996094 28.59375 C 15.019531 28.59375 15.039062 28.59375 15.054688 28.59375 C 18.6875 28.578125 22.097656 27.148438 24.652344 24.570312 C 27.210938 21.992188 28.609375 18.570312 28.59375 14.945312 C 28.578125 11.3125 27.148438 7.902344 24.570312 5.347656 Z M 15.050781 27.65625 C 14.441406 27.65625 13.84375 27.613281 13.246094 27.535156 L 13.246094 18.109375 L 10.351562 18.109375 L 10.351562 15.023438 L 13.246094 15.023438 L 13.246094 12.976562 C 13.246094 9.582031 14.902344 8.089844 17.722656 8.089844 C 19.074219 8.089844 19.785156 8.195312 20.125 8.234375 L 20.125 10.925781 L 18.203125 10.925781 C 17.007812 10.925781 16.585938 12.0625 16.585938 13.339844 L 16.585938 15.023438 L 20.09375 15.023438 L 19.617188 18.109375 L 16.585938 18.109375 L 16.585938 27.554688 C 16.082031 27.617188 15.570312 27.65625 15.050781 27.65625 Z M 23.984375 23.910156 C 22.199219 25.714844 19.960938 26.914062 17.523438 27.402344 L 17.523438 19.046875 L 19.617188 19.046875 C 20.082031 19.046875 20.476562 18.707031 20.546875 18.25 L 21.015625 15.214844 C 21.027344 15.15625 21.03125 15.09375 21.03125 15.027344 C 21.03125 14.507812 20.617188 14.089844 20.101562 14.089844 L 17.523438 14.089844 L 17.523438 13.339844 C 17.523438 12.792969 17.609375 11.863281 18.203125 11.863281 L 20.125 11.863281 C 20.644531 11.863281 21.0625 11.445312 21.0625 10.925781 L 21.0625 8.242188 C 21.0625 7.765625 20.714844 7.375 20.25 7.308594 C 19.867188 7.257812 19.109375 7.152344 17.722656 7.152344 C 14.230469 7.152344 12.308594 9.21875 12.308594 12.976562 L 12.308594 14.089844 L 10.351562 14.089844 C 9.828125 14.089844 9.414062 14.507812 9.414062 15.027344 L 9.414062 18.109375 C 9.414062 18.625 9.828125 19.046875 10.351562 19.046875 L 12.308594 19.046875 L 12.308594 27.367188 C 9.976562 26.863281 7.828125 25.710938 6.089844 23.984375 C 3.6875 21.609375 2.359375 18.4375 2.34375 15.050781 C 2.328125 11.671875 3.632812 8.488281 6.015625 6.089844 C 8.390625 3.6875 11.5625 2.359375 14.949219 2.34375 C 14.96875 2.34375 14.980469 2.34375 15.003906 2.34375 C 18.359375 2.34375 21.523438 3.648438 23.910156 6.015625 C 26.3125 8.390625 27.640625 11.5625 27.65625 14.949219 C 27.671875 18.328125 26.367188 21.511719 23.984375 23.910156 Z M 24.765625 20.582031 C 24.765625 20.582031 24.765625 20.585938 24.765625 20.585938 C 24.636719 20.808594 24.351562 20.886719 24.125 20.757812 L 23.3125 20.292969 C 23.085938 20.164062 23.011719 19.878906 23.136719 19.65625 C 23.136719 19.65625 23.136719 19.65625 23.136719 19.648438 C 23.269531 19.429688 23.554688 19.351562 23.78125 19.480469 L 24.589844 19.945312 C 24.816406 20.070312 24.894531 20.359375 24.765625 20.582031 Z M 25.808594 18.039062 C 25.800781 18.078125 25.78125 18.117188 25.761719 18.148438 C 25.660156 18.332031 25.445312 18.425781 25.238281 18.371094 L 24.328125 18.132812 C 24.078125 18.066406 23.929688 17.808594 23.996094 17.558594 C 24.0625 17.3125 24.320312 17.160156 24.566406 17.226562 L 25.476562 17.464844 C 25.726562 17.53125 25.875 17.785156 25.808594 18.039062 Z M 21.089844 23.820312 C 21.179688 23.972656 21.171875 24.148438 21.09375 24.289062 C 21.050781 24.359375 20.996094 24.417969 20.921875 24.460938 C 20.695312 24.589844 20.410156 24.515625 20.277344 24.289062 L 19.808594 23.484375 C 19.679688 23.257812 19.753906 22.972656 19.976562 22.84375 C 20.199219 22.710938 20.488281 22.785156 20.621094 23.011719 Z M 26.15625 15.304688 C 26.15625 15.394531 26.136719 15.472656 26.09375 15.542969 C 26.015625 15.679688 25.867188 15.773438 25.691406 15.777344 L 24.753906 15.777344 C 24.492188 15.78125 24.28125 15.570312 24.28125 15.3125 C 24.28125 15.050781 24.488281 14.84375 24.75 14.839844 L 25.6875 14.839844 C 25.945312 14.839844 26.15625 15.046875 26.15625 15.304688 Z M 23.09375 22.117188 C 23.25 22.265625 23.277344 22.5 23.175781 22.683594 C 23.152344 22.714844 23.128906 22.75 23.101562 22.777344 C 22.917969 22.960938 22.621094 22.964844 22.433594 22.78125 L 21.769531 22.121094 C 21.585938 21.9375 21.589844 21.636719 21.769531 21.453125 C 21.953125 21.273438 22.246094 21.273438 22.429688 21.453125 Z M 12.730469 4.503906 C 12.773438 4.683594 12.707031 4.867188 12.578125 4.972656 C 12.523438 5.019531 12.460938 5.054688 12.382812 5.070312 C 12.039062 5.15625 11.691406 5.257812 11.359375 5.382812 C 11.109375 5.464844 10.84375 5.339844 10.757812 5.101562 C 10.667969 4.855469 10.796875 4.585938 11.039062 4.5 C 11.40625 4.363281 11.785156 4.25 12.164062 4.164062 C 12.417969 4.101562 12.671875 4.257812 12.730469 4.503906 Z M 9.757812 5.578125 C 9.894531 5.796875 9.824219 6.078125 9.601562 6.21875 C 7.683594 7.382812 6.207031 9.179688 5.441406 11.273438 C 5.414062 11.351562 5.367188 11.421875 5.304688 11.476562 C 5.179688 11.578125 5.007812 11.617188 4.847656 11.554688 C 4.601562 11.464844 4.476562 11.199219 4.566406 10.953125 C 5.398438 8.65625 7.011719 6.6875 9.117188 5.417969 C 9.335938 5.28125 9.628906 5.351562 9.757812 5.578125 Z M 9.757812 5.578125 "/>
</g>
</svg>
