<?xml version="1.0" encoding="UTF-8"?>
<svg xmlns="http://www.w3.org/2000/svg" xmlns:xlink="http://www.w3.org/1999/xlink" width="30px" height="30px" viewBox="0 0 30 30" version="1.1">
<g id="surface1">
<path style=" stroke:none;fill-rule:nonzero;fill:rgb(0%,0%,0%);fill-opacity:1;" d="M 14.625 0.9375 C 7.007812 0.9375 0.804688 7.03125 0.804688 14.515625 C 0.804688 22 7.007812 28.089844 14.625 28.089844 C 22.417969 28.089844 27.65625 22.792969 27.65625 14.914062 L 27.65625 13.21875 C 27.65625 12.699219 27.238281 12.28125 26.71875 12.28125 L 15.628906 12.28125 C 15.117188 12.28125 14.691406 12.699219 14.691406 13.21875 L 14.691406 16.605469 C 14.691406 17.117188 15.117188 17.542969 15.628906 17.542969 L 22 17.542969 C 21.167969 20.933594 18.582031 22.828125 14.625 22.828125 C 9.960938 22.828125 6.160156 19.09375 6.160156 14.507812 C 6.160156 9.925781 9.960938 6.195312 14.625 6.195312 C 16.382812 6.195312 18.089844 6.730469 19.519531 7.71875 C 19.679688 7.835938 19.871094 7.894531 20.0625 7.894531 C 20.316406 7.894531 20.574219 7.785156 20.757812 7.582031 L 23.035156 5.007812 C 23.402344 4.601562 23.34375 3.960938 22.894531 3.632812 C 20.515625 1.890625 17.621094 0.9375 14.625 0.9375 Z M 14.625 1.875 C 17.394531 1.875 20.132812 2.769531 22.332031 4.386719 L 20.054688 6.949219 C 18.457031 5.84375 16.582031 5.257812 14.625 5.257812 C 11.484375 5.257812 8.703125 6.789062 6.988281 9.132812 L 4.234375 7.0625 C 6.578125 3.917969 10.363281 1.875 14.625 1.875 Z M 3.699219 7.835938 L 6.476562 9.917969 C 5.683594 11.273438 5.222656 12.839844 5.222656 14.515625 C 5.222656 15.585938 5.417969 16.609375 5.765625 17.570312 L 2.894531 19.722656 C 2.160156 18.132812 1.742188 16.371094 1.742188 14.515625 C 1.742188 12.0625 2.460938 9.777344 3.699219 7.835938 Z M 11.859375 8.0625 C 11.792969 8.070312 11.734375 8.085938 11.675781 8.109375 C 11.433594 8.21875 11.332031 8.488281 11.433594 8.722656 L 11.8125 9.578125 C 11.894531 9.757812 12.0625 9.859375 12.246094 9.859375 C 12.304688 9.859375 12.371094 9.851562 12.4375 9.820312 C 12.671875 9.71875 12.78125 9.441406 12.671875 9.199219 L 12.289062 8.351562 C 12.210938 8.167969 12.039062 8.0625 11.859375 8.0625 Z M 9.800781 9.507812 C 9.683594 9.507812 9.566406 9.550781 9.476562 9.644531 C 9.292969 9.828125 9.300781 10.128906 9.484375 10.3125 L 10.160156 10.964844 C 10.253906 11.050781 10.371094 11.089844 10.488281 11.089844 C 10.605469 11.089844 10.730469 11.046875 10.824219 10.949219 C 11 10.765625 11 10.464844 10.8125 10.289062 L 10.136719 9.640625 C 10.042969 9.542969 9.925781 9.5 9.800781 9.507812 Z M 8.4375 11.601562 C 8.261719 11.609375 8.085938 11.71875 8.011719 11.902344 C 7.917969 12.136719 8.035156 12.414062 8.269531 12.507812 L 9.140625 12.859375 C 9.199219 12.882812 9.257812 12.890625 9.316406 12.890625 C 9.5 12.890625 9.675781 12.78125 9.75 12.597656 C 9.851562 12.363281 9.734375 12.085938 9.492188 11.988281 L 8.621094 11.636719 C 8.5625 11.617188 8.503906 11.601562 8.4375 11.601562 Z M 15.628906 13.21875 L 26.71875 13.21875 L 26.71875 14.914062 C 26.71875 18.480469 25.5625 21.476562 23.539062 23.605469 L 20.960938 21.394531 C 21.882812 20.441406 22.550781 19.226562 22.917969 17.761719 C 22.984375 17.484375 22.925781 17.191406 22.742188 16.960938 C 22.566406 16.734375 22.296875 16.605469 22 16.605469 L 15.628906 16.605469 Z M 7.96875 14.0625 C 7.710938 14.0625 7.5 14.273438 7.5 14.53125 C 7.5 14.796875 7.710938 15 7.96875 15 L 8.90625 15 C 9.171875 15 9.375 14.796875 9.375 14.53125 C 9.375 14.273438 9.171875 14.0625 8.90625 14.0625 Z M 9.324219 16.171875 C 9.265625 16.171875 9.199219 16.179688 9.140625 16.199219 L 8.269531 16.550781 C 8.035156 16.65625 7.917969 16.925781 8.011719 17.167969 C 8.085938 17.351562 8.261719 17.460938 8.445312 17.460938 C 8.503906 17.460938 8.570312 17.445312 8.621094 17.425781 L 9.492188 17.074219 C 9.734375 16.976562 9.851562 16.707031 9.75 16.464844 C 9.675781 16.28125 9.507812 16.171875 9.324219 16.171875 Z M 10.496094 17.972656 C 10.371094 17.964844 10.253906 18.011719 10.160156 18.105469 L 9.484375 18.757812 C 9.300781 18.933594 9.292969 19.234375 9.476562 19.417969 C 9.566406 19.511719 9.691406 19.5625 9.8125 19.5625 C 9.929688 19.5625 10.046875 19.519531 10.136719 19.429688 L 10.8125 18.78125 C 11 18.597656 11 18.304688 10.824219 18.113281 C 10.730469 18.023438 10.613281 17.972656 10.496094 17.972656 Z M 6.136719 18.464844 C 7.648438 21.59375 10.882812 23.765625 14.625 23.765625 C 16.90625 23.765625 18.816406 23.152344 20.25 22.023438 L 22.867188 24.265625 C 20.785156 26.101562 17.957031 27.152344 14.625 27.152344 C 9.761719 27.152344 5.515625 24.484375 3.324219 20.566406 Z M 12.253906 19.203125 C 12.070312 19.195312 11.894531 19.304688 11.8125 19.484375 L 11.433594 20.339844 C 11.332031 20.574219 11.433594 20.851562 11.675781 20.953125 C 11.734375 20.984375 11.800781 21 11.863281 21 C 12.039062 21 12.21875 20.886719 12.289062 20.71875 L 12.671875 19.863281 C 12.78125 19.621094 12.671875 19.351562 12.4375 19.242188 C 12.378906 19.21875 12.3125 19.203125 12.253906 19.203125 Z M 12.253906 19.203125 "/>
</g>
</svg>
